<svg width="94" height="24" viewBox="0 0 94 24" fill="none" xmlns="http://www.w3.org/2000/svg">
<path d="M8.69596 4.872C9.75196 4.872 10.664 4.984 11.432 5.208C12.2 5.416 12.864 5.672 13.424 5.976L12.608 8.64C11.984 8.32 11.352 8.072 10.712 7.896C10.088 7.704 9.48796 7.608 8.91196 7.608C8.17596 7.608 7.61596 7.744 7.23196 8.016C6.84796 8.288 6.65596 8.648 6.65596 9.096C6.65596 9.608 6.83996 9.984 7.20796 10.224C7.57596 10.448 8.14396 10.688 8.91196 10.944L10.328 11.4C10.888 11.592 11.408 11.832 11.888 12.12C12.368 12.392 12.776 12.712 13.112 13.08C13.464 13.448 13.736 13.864 13.928 14.328C14.12 14.792 14.216 15.296 14.216 15.84C14.216 16.48 14.096 17.088 13.856 17.664C13.616 18.224 13.248 18.72 12.752 19.152C12.272 19.584 11.656 19.928 10.904 20.184C10.168 20.424 9.29596 20.544 8.28796 20.544C7.34396 20.544 6.43996 20.448 5.57596 20.256C4.72796 20.048 3.94396 19.76 3.22396 19.392L4.03996 16.728C4.72796 17.064 5.39996 17.328 6.05596 17.52C6.71196 17.712 7.39996 17.808 8.11996 17.808C8.96796 17.808 9.57596 17.672 9.94396 17.4C10.328 17.112 10.52 16.728 10.52 16.248C10.52 16.088 10.488 15.928 10.424 15.768C10.36 15.608 10.232 15.448 10.04 15.288C9.86396 15.128 9.60796 14.976 9.27196 14.832C8.95196 14.672 8.53596 14.512 8.02396 14.352L6.84796 13.944C6.28796 13.736 5.76796 13.504 5.28796 13.248C4.80796 12.992 4.39196 12.688 4.03996 12.336C3.70396 11.984 3.43996 11.576 3.24796 11.112C3.05596 10.648 2.95996 10.096 2.95996 9.456C2.95996 8.8 3.07996 8.192 3.31996 7.632C3.57596 7.072 3.94396 6.592 4.42396 6.192C4.91996 5.776 5.51996 5.456 6.22396 5.232C6.94396 4.992 7.76796 4.872 8.69596 4.872Z" fill="#101019"/>
<path d="M20.093 16.536V20.28H16.565V3.12H20.093V13.128L23.693 8.76H27.989L23.645 13.608L28.181 20.28H24.005L20.957 15.648L20.093 16.536Z" fill="#101019"/>
<path d="M29.9294 20.28V8.76H33.4814V20.28H29.9294ZM31.7054 6.504C31.0974 6.504 30.6334 6.336 30.3134 6C29.9934 5.648 29.8334 5.232 29.8334 4.752C29.8334 4.272 29.9934 3.864 30.3134 3.528C30.6494 3.176 31.1134 3 31.7054 3C32.2974 3 32.7534 3.168 33.0734 3.504C33.4094 3.84 33.5774 4.256 33.5774 4.752C33.5774 5.248 33.4174 5.664 33.0974 6C32.7774 6.336 32.3134 6.504 31.7054 6.504Z" fill="#101019"/>
<path d="M36.6046 20.28V3.12H40.1086V20.28H36.6046Z" fill="#101019"/>
<path d="M43.0499 20.28V3.12H46.5539V20.28H43.0499Z" fill="#101019"/>
<path d="M49.6152 20.2801V5.16012H53.2632V11.0401H58.5192V5.16012H62.1672V20.2801H58.5192V13.8721H53.2632V20.2801H49.6152Z" fill="#773FFF"/>
<path d="M72.4698 8.76012H76.0218V20.2801H73.4058L73.0458 19.0321H72.9498C72.7898 19.1921 72.5978 19.3601 72.3738 19.5361C72.1498 19.7121 71.8778 19.8801 71.5578 20.0401C71.2538 20.1841 70.9018 20.3041 70.5018 20.4001C70.1018 20.4961 69.6458 20.5441 69.1338 20.5441C67.8858 20.5441 66.9098 20.2001 66.2058 19.5121C65.5018 18.8241 65.1498 17.8081 65.1498 16.4641V8.76012H68.7018V16.1761C68.7018 16.7681 68.8458 17.2081 69.1338 17.4961C69.4378 17.7681 69.8218 17.9041 70.2858 17.9041C70.8458 17.9041 71.3018 17.7921 71.6538 17.5681C72.0218 17.3281 72.2938 17.0801 72.4698 16.8241V8.76012Z" fill="#773FFF"/>
<path d="M90.4779 14.5681C90.4779 15.4961 90.3339 16.3281 90.0459 17.0641C89.7739 17.8001 89.3899 18.4321 88.8939 18.9601C88.4139 19.4721 87.8379 19.8641 87.1659 20.1361C86.5099 20.4081 85.7899 20.5441 85.0059 20.5441C84.2539 20.5441 83.6139 20.4321 83.0859 20.2081C82.5579 19.9681 82.1099 19.6401 81.7419 19.2241H81.6459L81.4299 20.2801H78.8619V3.12012H82.3899V9.55212C82.7579 9.24812 83.1899 9.00012 83.6859 8.80812C84.1819 8.60012 84.7339 8.49612 85.3419 8.49612C86.9419 8.49612 88.1979 9.03212 89.1099 10.1041C90.0219 11.1601 90.4779 12.6481 90.4779 14.5681ZM86.8299 14.6641C86.8299 13.4961 86.6059 12.6241 86.1579 12.0481C85.7099 11.4721 85.0779 11.1841 84.2619 11.1841C83.8779 11.1841 83.5099 11.2881 83.1579 11.4961C82.8219 11.6881 82.5739 11.8801 82.4139 12.0721V17.2561C82.5899 17.4641 82.8219 17.6321 83.1099 17.7601C83.3979 17.8881 83.7019 17.9521 84.0219 17.9521C84.3899 17.9521 84.7419 17.8881 85.0779 17.7601C85.4139 17.6321 85.7099 17.4321 85.9659 17.1601C86.2379 16.8881 86.4459 16.5441 86.5899 16.1281C86.7499 15.7121 86.8299 15.2241 86.8299 14.6641Z" fill="#773FFF"/>
</svg>
