<svg width="24" height="24" viewBox="0 0 24 24" fill="none" xmlns="http://www.w3.org/2000/svg">
<path fill-rule="evenodd" clip-rule="evenodd" d="M12 21C16.9706 21 21 16.9706 21 12C21 11.5931 20.973 11.1926 20.9207 10.8L12 10.8V14H17.6561C16.8325 16.3304 14.61 18 11.9975 18C8.68382 18 5.99753 15.3137 5.99753 12C5.99753 8.68631 8.68382 6.00002 11.9975 6.00002C13.4562 6.00002 14.7933 6.52056 15.8333 7.38601L18.0915 5.37474C16.4887 3.9003 14.3495 3 12 3C7.02944 3 3 7.02944 3 12C3 16.9706 7.02944 21 12 21Z" fill="white"/>
</svg>
