<svg width="89" height="19" viewBox="0 0 89 19" fill="none" xmlns="http://www.w3.org/2000/svg">
<path d="M6.69596 2.59197C7.75196 2.59197 8.66396 2.70397 9.43196 2.92797C10.2 3.13597 10.864 3.39197 11.424 3.69597L10.608 6.35997C9.98396 6.03997 9.35196 5.79197 8.71196 5.61597C8.08796 5.42397 7.48796 5.32797 6.91196 5.32797C6.17596 5.32797 5.61596 5.46397 5.23196 5.73597C4.84796 6.00797 4.65596 6.36797 4.65596 6.81597C4.65596 7.32797 4.83996 7.70397 5.20796 7.94397C5.57596 8.16797 6.14396 8.40797 6.91196 8.66397L8.32796 9.11997C8.88796 9.31197 9.40796 9.55197 9.88796 9.83997C10.368 10.112 10.776 10.432 11.112 10.8C11.464 11.168 11.736 11.584 11.928 12.048C12.12 12.512 12.216 13.016 12.216 13.56C12.216 14.2 12.096 14.808 11.856 15.384C11.616 15.944 11.248 16.44 10.752 16.872C10.272 17.304 9.65596 17.648 8.90396 17.904C8.16796 18.144 7.29596 18.264 6.28796 18.264C5.34396 18.264 4.43996 18.168 3.57596 17.976C2.72796 17.768 1.94396 17.48 1.22396 17.112L2.03996 14.448C2.72796 14.784 3.39996 15.048 4.05596 15.24C4.71196 15.432 5.39996 15.528 6.11996 15.528C6.96796 15.528 7.57596 15.392 7.94396 15.12C8.32796 14.832 8.51996 14.448 8.51996 13.968C8.51996 13.808 8.48796 13.648 8.42396 13.488C8.35996 13.328 8.23196 13.168 8.03996 13.008C7.86396 12.848 7.60796 12.696 7.27196 12.552C6.95196 12.392 6.53596 12.232 6.02396 12.072L4.84796 11.664C4.28796 11.456 3.76796 11.224 3.28796 10.968C2.80796 10.712 2.39196 10.408 2.03996 10.056C1.70396 9.70397 1.43996 9.29597 1.24796 8.83197C1.05596 8.36797 0.959961 7.81597 0.959961 7.17597C0.959961 6.51997 1.07996 5.91197 1.31996 5.35197C1.57596 4.79197 1.94396 4.31197 2.42396 3.91197C2.91996 3.49597 3.51996 3.17597 4.22396 2.95197C4.94396 2.71197 5.76796 2.59197 6.69596 2.59197Z" fill="white"/>
<path d="M18.093 14.256V18H14.565V0.839971H18.093V10.848L21.693 6.47997H25.989L21.645 11.328L26.181 18H22.005L18.957 13.368L18.093 14.256Z" fill="white"/>
<path d="M27.9294 18V6.47997H31.4814V18H27.9294ZM29.7054 4.22397C29.0974 4.22397 28.6334 4.05597 28.3134 3.71997C27.9934 3.36797 27.8334 2.95197 27.8334 2.47197C27.8334 1.99197 27.9934 1.58397 28.3134 1.24797C28.6494 0.895971 29.1134 0.719971 29.7054 0.719971C30.2974 0.719971 30.7534 0.88797 31.0734 1.22397C31.4094 1.55997 31.5774 1.97597 31.5774 2.47197C31.5774 2.96797 31.4174 3.38397 31.0974 3.71997C30.7774 4.05597 30.3134 4.22397 29.7054 4.22397Z" fill="white"/>
<path d="M34.6046 18V0.839971H38.1086V18H34.6046Z" fill="white"/>
<path d="M41.0499 18V0.839971H44.5539V18H41.0499Z" fill="white"/>
<path d="M47.6152 18.0001V2.88009H51.2632V8.76009H56.5192V2.88009H60.1672V18.0001H56.5192V11.5921H51.2632V18.0001H47.6152Z" fill="#773FFF"/>
<path d="M70.4698 6.48009H74.0218V18.0001H71.4058L71.0458 16.7521H70.9498C70.7898 16.9121 70.5978 17.0801 70.3738 17.2561C70.1498 17.4321 69.8778 17.6001 69.5578 17.7601C69.2538 17.9041 68.9018 18.0241 68.5018 18.1201C68.1018 18.2161 67.6458 18.2641 67.1338 18.2641C65.8858 18.2641 64.9098 17.9201 64.2058 17.2321C63.5018 16.5441 63.1498 15.5281 63.1498 14.1841V6.48009H66.7018V13.8961C66.7018 14.4881 66.8458 14.9281 67.1338 15.2161C67.4378 15.4881 67.8218 15.6241 68.2858 15.6241C68.8458 15.6241 69.3018 15.5121 69.6538 15.2881C70.0218 15.0481 70.2938 14.8001 70.4698 14.5441V6.48009Z" fill="#773FFF"/>
<path d="M88.4779 12.2881C88.4779 13.2161 88.3339 14.0481 88.0459 14.7841C87.7739 15.5201 87.3899 16.1521 86.8939 16.6801C86.4139 17.1921 85.8379 17.5841 85.1659 17.8561C84.5099 18.1281 83.7899 18.2641 83.0059 18.2641C82.2539 18.2641 81.6139 18.1521 81.0859 17.9281C80.5579 17.6881 80.1099 17.3601 79.7419 16.9441H79.6459L79.4299 18.0001H76.8619V0.840088H80.3899V7.27209C80.7579 6.96809 81.1899 6.72009 81.6859 6.52809C82.1819 6.32009 82.7339 6.21609 83.3419 6.21609C84.9419 6.21609 86.1979 6.75209 87.1099 7.82409C88.0219 8.88009 88.4779 10.3681 88.4779 12.2881ZM84.8299 12.3841C84.8299 11.2161 84.6059 10.3441 84.1579 9.76809C83.7099 9.19209 83.0779 8.90409 82.2619 8.90409C81.8779 8.90409 81.5099 9.00809 81.1579 9.21609C80.8219 9.40809 80.5739 9.60009 80.4139 9.79209V14.9761C80.5899 15.1841 80.8219 15.3521 81.1099 15.4801C81.3979 15.6081 81.7019 15.6721 82.0219 15.6721C82.3899 15.6721 82.7419 15.6081 83.0779 15.4801C83.4139 15.3521 83.7099 15.1521 83.9659 14.8801C84.2379 14.6081 84.4459 14.2641 84.5899 13.8481C84.7499 13.4321 84.8299 12.9441 84.8299 12.3841Z" fill="#773FFF"/>
</svg>
