<svg width="24" height="24" viewBox="0 0 24 24" fill="none" xmlns="http://www.w3.org/2000/svg">
<path fill-rule="evenodd" clip-rule="evenodd" d="M11.7499 17.9428H12.9479C12.9479 17.9428 13.3089 17.9015 13.4929 17.6935C13.6679 17.4995 13.6679 17.1405 13.6679 17.1405C13.6679 17.1405 13.6419 15.4491 14.3919 15.2007C15.1309 14.954 16.0689 16.8333 17.0679 17.5557C17.8309 18.1078 18.4049 17.9893 18.4049 17.9893L21.0809 17.9507C21.0809 17.9507 22.4829 17.8585 21.8199 16.699C21.7689 16.6068 21.4439 15.8432 19.8439 14.2764C18.1679 12.6429 18.3929 12.9062 20.4079 10.0746C21.6319 8.34981 22.1329 7.29561 21.9699 6.84791C21.8319 6.42661 20.9199 6.53111 20.9199 6.53111L17.9189 6.55831C17.9189 6.55831 17.6939 6.53111 17.5309 6.63731C17.3689 6.74171 17.2689 6.98051 17.2689 6.98051C17.2689 6.98051 16.7929 8.32262 16.1559 9.45572C14.8039 11.8511 14.2659 11.9828 14.0539 11.8248C13.5499 11.4816 13.6789 10.438 13.6789 9.69011C13.6789 7.37191 14.0159 6.39851 13.0289 6.14831C12.7039 6.06851 12.4609 6.01671 11.6239 6.00261C10.5489 5.99041 9.64289 6.01141 9.12889 6.27561C8.79089 6.45381 8.52889 6.84791 8.67889 6.86812C8.87889 6.89442 9.32889 6.99631 9.56589 7.33951C9.87889 7.78361 9.8649 8.77551 9.8649 8.77551C9.8649 8.77551 10.0409 11.5106 9.45389 11.8503C9.04089 12.0802 8.49089 11.6045 7.29089 9.43121C6.67789 8.32521 6.21489 7.08761 6.21489 7.08761C6.21489 7.08761 6.1279 6.86281 5.9659 6.73121C5.7769 6.58641 5.50189 6.53371 5.50189 6.53371L2.6389 6.56001C2.6389 6.56001 2.2139 6.57411 2.0649 6.77071C1.9269 6.94181 2.05189 7.31051 2.05189 7.31051C2.05189 7.31051 4.28989 12.829 6.82889 15.608C9.15389 18.1552 11.7919 17.9911 11.7919 17.9911L11.7499 17.9428Z" fill="white"/>
</svg>
